<?xml version="1.0" encoding="iso-8859-1"?>
<!DOCTYPE svg PUBLIC "-//W3C//DTD SVG 1.1 Basic//EN" "http://www.w3.org/Graphics/SVG/1.1/DTD/svg11-basic.dtd">
<svg version="1.1" baseProfile="basic"
   xmlns="http://www.w3.org/2000/svg" xmlns:xlink="http://www.w3.org/1999/xlink" x="0px" y="0px" width="48px" height="48px"
   viewBox="0 0 48 48" xml:space="preserve">
  <path transform="matrix(0.048,0,0,0.048,0,0)" stroke="none" style="fill:#CD362C" d="M 679 659 C 676 647 663 640 651 644 C 638 647 631 660 635 672 L 673 798 L 504 886 L 542 805 C 544 805 546 806 548 806 C 574 806 598 791 609 767 C 616 751 617 733 611 716 C 605 699 593 686 576 678 C 567 674 558 672 548 672 C 522 672 498 687 487 711 C 474 737 481 767 500 786 L 462 868 L 422 681 L 544 630 C 556 625 561 611 556 600 C 551 588 537 583 526 588 L 387 647 C 376 651 371 662 373 673 L 430 944 C 431 945 431 946 432 947 C 432 948 432 949 433 950 C 433 950 433 950 433 951 C 433 951 434 951 434 952 C 435 954 437 955 438 956 C 438 957 439 957 439 957 C 441 958 443 959 444 960 C 445 960 445 960 446 961 C 448 961 451 962 453 962 C 454 962 454 962 455 962 C 456 962 457 962 458 961 C 458 961 458 961 458 961 C 460 961 462 960 464 959 L 711 830 C 721 825 725 814 722 803 L 679 659 z M 528 730 C 532 723 539 718 548 718 C 551 718 554 719 557 720 C 562 722 566 726 568 732 C 569 737 569 743 567 748 C 562 758 549 763 539 758 C 528 753 523 741 528 730 z M 982 105 L 763 2 C 757 0 751 0 745 2 C 739 4 735 8 732 13 L 535 430 C 529 442 534 455 546 461 C 557 466 571 461 576 450 L 764 54 L 942 136 L 754 533 C 749 544 753 558 765 563 C 768 565 772 565 775 565 C 784 565 792 560 796 552 L 993 135 C 999 124 994 110 982 105 z M 891 155 L 782 104 L 736 201 L 845 252 L 891 155 z M 823 191 L 798 179 L 805 165 L 829 177 L 823 191 z M 415 950 L 23 950 C 10 950 0 961 0 973 C 0 986 10 996 23 996 L 415 996 C 428 996 439 986 439 973 C 439 961 428 950 415 950 z M 761 598 L 523 487 C 511 481 497 486 492 498 C 486 509 491 523 503 528 L 742 639 C 745 641 748 642 752 642 C 760 642 769 637 773 628 C 778 617 773 603 761 598 z"/>
</svg>